{
  "accessors": [
    {
      "bufferView": 2,
      "componentType": 5126,
      "count": 10371,
      "max": [
        0.5208016633987427,
        0.875755786895752,
        0.12158863991498947
      ],
      "min": [
        -0.5492690205574036,
        -2.2718300819396973,
        -0.06298582255840302
      ],
      "type": "VEC3"
    },
    {
      "bufferView": 2,
      "byteOffset": 124452,
      "componentType": 5126,
      "count": 10371,
      "max": [
        1.0,
        1.0,
        1.0
      ],
      "min": [
        -1.0,
        -1.0,
        -1.0
      ],
      "type": "VEC3"
    },
    {
      "bufferView": 1,
      "componentType": 5126,
      "count": 10371,
      "max": [
        0.9868181347846985,
        0.9972838759422302
      ],
      "min": [
        0.0,
        0.0
      ],
      "type": "VEC2"
    },
    {
      "bufferView": 0,
      "componentType": 5125,
      "count": 39417,
      "type": "SCALAR"
    },
    {
      "bufferView": 2,
      "byteOffset": 248904,
      "componentType": 5126,
      "count": 48354,
      "max": [
        0.39695289731025696,
        0.8908443450927734,
        0.14943823218345642
      ],
      "min": [
        -0.4084465205669403,
        -2.208259105682373,
        -0.03125092014670372
      ],
      "type": "VEC3"
    },
    {
      "bufferView": 2,
      "byteOffset": 829152,
      "componentType": 5126,
      "count": 48354,
      "max": [
        1.0,
        1.0,
        1.0
      ],
      "min": [
        -1.0,
        -1.0,
        -1.0
      ],
      "type": "VEC3"
    },
    {
      "bufferView": 1,
      "byteOffset": 82968,
      "componentType": 5126,
      "count": 48354,
      "max": [
        0.9276210069656372,
        0.8519328832626343
      ],
      "min": [
        0.03805571794509888,
        0.020851805806159973
      ],
      "type": "VEC2"
    },
    {
      "bufferView": 0,
      "byteOffset": 157668,
      "componentType": 5125,
      "count": 157011,
      "type": "SCALAR"
    }
  ],
  "asset": {
    "extras": {
      "author": "pinhead19920604 (https://sketchfab.com/pinhead19920604)",
      "license": "CC-BY-4.0 (http://creativecommons.org/licenses/by/4.0/)",
      "source": "https://sketchfab.com/3d-models/guitarra-giannini-sunburst-2749c03da8a147bfb1544e8b04a111ea",
      "title": "Guitarra Giannini Sunburst"
    },
    "generator": "Sketchfab-16.12.0",
    "version": "2.0"
  },
  "bufferViews": [
    {
      "buffer": 0,
      "byteLength": 785712,
      "name": "floatBufferViews",
      "target": 34963
    },
    {
      "buffer": 0,
      "byteLength": 469800,
      "byteOffset": 785712,
      "byteStride": 8,
      "name": "floatBufferViews",
      "target": 34962
    },
    {
      "buffer": 0,
      "byteLength": 1409400,
      "byteOffset": 1255512,
      "byteStride": 12,
      "name": "floatBufferViews",
      "target": 34962
    }
  ],
  "buffers": [
    {
      "byteLength": 2664912,
      "uri": "scene.bin"
    }
  ],
  "images": [
    {
      "uri": "textures/Textura_1_baseColor.png"
    },
    {
      "uri": "textures/Textura_2_baseColor.png"
    }
  ],
  "materials": [
    {
      "doubleSided": true,
      "name": "Textura_1",
      "pbrMetallicRoughness": {
        "baseColorTexture": {
          "index": 0
        },
        "metallicFactor": 0.12,
        "roughnessFactor": 0.0
      }
    },
    {
      "doubleSided": true,
      "name": "Textura_2",
      "pbrMetallicRoughness": {
        "baseColorTexture": {
          "index": 1
        },
        "metallicFactor": 0.884058,
        "roughnessFactor": 0.0
      }
    }
  ],
  "meshes": [
    {
      "name": "Object_0",
      "primitives": [
        {
          "attributes": {
            "NORMAL": 1,
            "POSITION": 0,
            "TEXCOORD_0": 2
          },
          "indices": 3,
          "material": 0,
          "mode": 4
        }
      ]
    },
    {
      "name": "Object_1",
      "primitives": [
        {
          "attributes": {
            "NORMAL": 5,
            "POSITION": 4,
            "TEXCOORD_0": 6
          },
          "indices": 7,
          "material": 1,
          "mode": 4
        }
      ]
    }
  ],
  "nodes": [
    {
      "children": [
        1
      ],
      "matrix": [
        1.0,
        0.0,
        0.0,
        0.0,
        0.0,
        2.220446049250313e-16,
        -1.0,
        0.0,
        0.0,
        1.0,
        2.220446049250313e-16,
        0.0,
        0.0,
        0.0,
        0.0,
        1.0
      ],
      "name": "Sketchfab_model"
    },
    {
      "children": [
        2
      ],
      "name": "root"
    },
    {
      "children": [
        3
      ],
      "matrix": [
        1.0,
        0.0,
        0.0,
        0.0,
        0.0,
        2.220446049250313e-16,
        1.0,
        0.0,
        0.0,
        -1.0,
        2.220446049250313e-16,
        0.0,
        0.0,
        0.0,
        0.0,
        1.0
      ],
      "name": "GLTF_SceneRootNode"
    },
    {
      "children": [
        4,
        5
      ],
      "matrix": [
        1.470666527748108,
        0.0,
        0.0,
        0.0,
        0.0,
        -1.4706665277480295,
        -4.792039960467604e-07,
        0.0,
        0.0,
        4.792039960467604e-07,
        -1.4706665277480295,
        0.0,
        0.0009481431916356087,
        -2.212479591369629,
        -0.0815417692065239,
        1.0
      ],
      "name": "Guitarra SunBrust_2"
    },
    {
      "mesh": 0,
      "name": "Object_4"
    },
    {
      "mesh": 1,
      "name": "Object_5"
    }
  ],
  "samplers": [
    {
      "magFilter": 9729,
      "minFilter": 9987,
      "wrapS": 10497,
      "wrapT": 10497
    }
  ],
  "scene": 0,
  "scenes": [
    {
      "name": "Sketchfab_Scene",
      "nodes": [
        0
      ]
    }
  ],
  "textures": [
    {
      "sampler": 0,
      "source": 0
    },
    {
      "sampler": 0,
      "source": 1
    }
  ]
}
